# xmcd
#
# Track frame offsets:
#	150
#	16273
#	31402
#	45752
#	61050
#	74657
#	89199
#	103478
#	113976
#	127950
#	145223
#	162137
#	176105
#	193194
#	206591
#	223437
#	238369
#	255648
#	271996
#	284939
#	303374
#	317481
#	331613
#
# Disc length: 4642
#
# Revision: 1
# Processed by: cddbd v1.5.1PL0 Copyright (c) Steve Scherf et al.
# Submitted via: audiograbber 1.81.01
# Normalized: r0:DSETVAR1
#
DISCID=69122017
DTITLE=Various Artist - Country Hits - Volume 3
DYEAR=1900
DGENRE=
TTITLE0=Mary Chapin Carpenter - I Feel Lucky
TTITLE1=Diamond Rio - Meet In The Middle
TTITLE2=Sammy Kershaw - National Working Woman's Holiday
TTITLE3=Tim McGraw - Where The Green Grass Grows
TTITLE4=Shenandoah - The Church On Cumberland Road
TTITLE5=Vince Gill - One More Last Chance
TTITLE6=John Denver - Thank God I'm A Country Boy
TTITLE7=George Strait - Heartland
TTITLE8=Shane Minor - Slave To The Habit
TTITLE9=Mary Chapin Carpenter - The Bug
TTITLE10=Little Texas - Kick A Little
TTITLE11=Randy Travis - If I Didn't Have You
TTITLE12=Chad Brock - Lightning Does The Work
TTITLE13=Hank Williams Jr. - All My Rowdy Friends Are Coming Over Tonight
TTITLE14=Mary Chapin Carpenter - Shut Up And Kiss Me
TTITLE15=Reba McEntire - Take It Back
TTITLE16=Joe Diffie - Honky Tonk Attitude
TTITLE17=Tracy Byrd - A Good Way To Get On My Bad Side (With Mark Chesnutt)
TTITLE18=Patty Loveless - I Try To Think About Elvis
TTITLE19=Lonestar - Saturday Night
TTITLE20=Vince Gill - What The Cowgirls Do
TTITLE21=Randy Travis - Honky Tonk Side Of Town
TTITLE22=Alan Jackson - Mercury Blues
EXTD=
EXTT0=
EXTT1=
EXTT2=
EXTT3=
EXTT4=
EXTT5=
EXTT6=
EXTT7=
EXTT8=
EXTT9=
EXTT10=
EXTT11=
EXTT12=
EXTT13=
EXTT14=
EXTT15=
EXTT16=
EXTT17=
EXTT18=
EXTT19=
EXTT20=
EXTT21=
EXTT22=
PLAYORDER=
